<?xml version="1.0" standalone="no"?>
<!DOCTYPE svg PUBLIC "-//W3C//DTD SVG 20010904//EN"
 "http://www.w3.org/TR/2001/REC-SVG-20010904/DTD/svg10.dtd">
<svg version="1.0" xmlns="http://www.w3.org/2000/svg"
 width="126.000000pt" height="126.000000pt" viewBox="0 0 126.000000 126.000000"
 preserveAspectRatio="xMidYMid meet">
<metadata>
Created by potrace 1.14, written by Peter Selinger 2001-2017
</metadata>
<g transform="translate(0.000000,126.000000) scale(0.100000,-0.100000)"
fill="#000000" stroke="none">
<path d="M541 1248 c-55 -8 -106 -24 -173 -52 -33 -14 -154 -100 -182 -129
-202 -211 -232 -532 -72 -780 135 -207 378 -313 628 -273 80 13 218 72 268
116 14 12 39 34 55 48 107 95 181 254 192 412 23 348 -250 652 -597 664 -36 1
-89 -2 -119 -6z m64 -178 c3 -6 -1 -7 -9 -4 -18 7 -21 14 -7 14 6 0 13 -4 16
-10z m85 -16 c0 -2 -9 0 -20 6 -11 6 -20 13 -20 16 0 2 9 0 20 -6 11 -6 20
-13 20 -16z m-45 -2 c-3 -3 -11 0 -18 7 -9 10 -8 11 6 5 10 -3 15 -9 12 -12z
m89 3 c-4 -8 -13 -15 -21 -15 -11 0 -10 -6 6 -29 25 -35 25 -38 6 -38 -15 0
-19 9 -16 34 1 6 -3 14 -9 18 -5 3 -10 -1 -10 -10 0 -11 -5 -15 -15 -12 -8 4
-17 1 -21 -5 -4 -7 -3 -8 4 -4 8 5 10 2 6 -8 -3 -9 -1 -16 6 -16 6 0 8 -5 4
-12 -5 -9 -2 -8 10 1 12 11 20 11 28 3 8 -8 15 -9 25 -1 9 8 13 8 13 1 0 -6
-8 -16 -17 -21 -10 -6 -13 -11 -6 -11 6 0 15 5 18 10 4 6 11 8 16 5 26 -17 -3
-22 -121 -22 -101 1 -130 4 -130 14 0 15 16 17 25 3 3 -5 11 -10 16 -10 6 0
-1 10 -13 23 -13 12 -23 29 -23 37 1 8 -3 23 -8 34 -6 12 -6 16 1 12 6 -3 13
-2 17 4 3 5 12 10 18 10 7 0 3 -7 -7 -15 -32 -24 -10 -29 24 -5 17 12 34 19
37 16 4 -3 1 -6 -6 -6 -7 0 -9 -5 -6 -10 4 -6 3 -10 -2 -9 -20 3 -34 -2 -28
-11 3 -5 12 -7 19 -4 7 3 18 -1 24 -9 9 -11 8 -14 -3 -14 -8 0 -12 5 -9 11 3
6 -2 2 -10 -8 -14 -17 -20 -16 -18 4 0 3 -8 6 -18 6 -18 0 -17 -7 3 -34 7 -9
13 -9 23 -1 11 9 18 8 31 -2 9 -8 14 -9 10 -2 -4 6 -2 13 4 15 9 3 8 10 -1 28
-9 18 -10 25 -1 28 6 2 8 9 5 15 -4 7 1 4 11 -5 17 -16 19 -16 33 0 12 15 13
15 9 0 -9 -28 2 -27 34 3 35 33 41 35 33 14z m31 -5 c3 -5 1 -10 -4 -10 -6 0
-11 5 -11 10 0 6 2 10 4 10 3 0 8 -4 11 -10z m-312 -35 c-3 -9 -8 -14 -10 -11
-3 3 -2 9 2 15 9 16 15 13 8 -4z m319 2 c-12 -6 -22 -14 -22 -19 0 -10 23 -6
32 6 4 6 12 6 20 -1 7 -6 21 -11 31 -12 40 -3 45 -5 40 -18 -3 -7 -9 -13 -14
-13 -4 0 -6 -7 -2 -16 4 -12 7 -13 14 -3 4 8 11 10 15 6 13 -13 -6 -20 -55
-22 -49 -1 -50 -1 -75 46 -14 26 -26 49 -26 51 0 3 14 5 32 5 29 0 30 -1 10
-10z m78 9 c0 -3 -4 -8 -10 -11 -5 -3 -10 -1 -10 4 0 6 5 11 10 11 6 0 10 -2
10 -4z m-500 -26 c0 -5 -2 -10 -4 -10 -3 0 -8 5 -11 10 -3 6 -1 10 4 10 6 0
11 -4 11 -10z m40 6 c0 -2 -7 -7 -16 -10 -8 -3 -12 -2 -9 4 6 10 25 14 25 6z
m111 -4 c2 -11 2 -45 1 -66 -2 -15 -5 -17 -14 -8 -8 8 -8 15 1 26 9 11 9 16 0
22 -7 4 -9 3 -5 -4 3 -6 -1 -9 -11 -8 -16 3 -19 10 -14 34 1 10 41 13 42 4z
m-98 -19 c-5 -15 -3 -16 8 -5 7 6 18 12 24 12 5 0 2 -5 -7 -11 -10 -5 -18 -15
-18 -21 0 -7 5 -7 14 1 10 9 16 9 21 1 4 -6 13 -9 20 -6 8 3 11 -2 8 -15 -6
-20 -23 -26 -23 -8 0 8 -4 8 -12 2 -22 -16 -43 -9 -41 14 2 17 -1 21 -13 16
-14 -5 -13 -2 2 15 22 27 25 27 17 5z m501 -8 c-4 -10 0 -13 15 -10 18 3 20 1
11 -16 -6 -10 -16 -19 -23 -18 -9 0 -9 2 1 6 16 6 16 24 0 21 -7 -2 -13 7 -14
19 -1 12 2 20 7 17 4 -2 6 -11 3 -19z m-204 11 c0 -11 -19 -15 -25 -6 -3 5 1
10 9 10 9 0 16 -2 16 -4z m-320 -48 c0 -4 -6 -10 -12 -14 -7 -4 -10 -3 -5 1 4
5 -1 17 -10 28 -18 19 -17 19 5 6 12 -8 22 -17 22 -21z m-108 -85 c-6 -2 -9
-10 -6 -15 4 -7 2 -8 -5 -4 -13 9 -5 26 12 25 9 0 8 -2 -1 -6z m98 -3 c0 -5
-9 -7 -21 -5 -15 3 -19 0 -15 -10 3 -8 0 -17 -6 -21 -6 -4 -8 -3 -5 3 4 6 1
13 -7 16 -9 4 -12 -2 -10 -19 1 -13 -3 -24 -9 -24 -8 0 -7 -3 1 -9 11 -7 11
-9 -2 -14 -8 -3 -18 -2 -22 4 -4 6 -12 6 -22 -3 -14 -10 -15 -10 -5 2 10 11
10 17 0 29 -10 12 -9 13 3 6 20 -13 40 -15 40 -5 0 5 -6 10 -12 13 -7 2 -5 3
5 2 9 -2 17 1 17 6 0 5 -5 9 -11 9 -5 0 -7 5 -4 11 4 6 13 8 21 5 7 -3 15 -2
18 2 7 11 46 12 46 2z m525 1 c-8 -14 27 -23 39 -11 8 8 6 9 -6 5 -10 -4 -18
-3 -18 2 0 5 11 9 24 9 22 0 23 -2 13 -20 -6 -12 -10 -24 -9 -28 4 -13 -16 -9
-21 5 -4 7 -6 8 -6 1 -1 -7 10 -19 24 -28 16 -11 22 -22 18 -33 -5 -12 -2 -15
10 -10 9 3 19 2 22 -3 6 -9 -8 -14 -28 -11 -4 0 -6 -2 -6 -6 3 -20 -2 -27 -11
-13 -7 12 -9 10 -7 -7 1 -20 3 -21 17 -8 18 16 32 20 28 8 -2 -5 0 -9 5 -10 4
-2 7 0 6 3 0 4 5 11 13 15 7 5 8 9 3 9 -6 0 -11 11 -11 25 0 14 4 25 9 25 4 0
5 5 2 10 -4 6 -13 3 -23 -8 -9 -10 -12 -11 -7 -3 8 12 7 13 -5 7 -8 -4 -7 -1
3 8 23 18 50 10 42 -14 -3 -9 3 -24 15 -35 11 -10 20 -22 20 -28 0 -5 -9 1
-20 14 -10 13 -19 19 -20 14 0 -6 5 -16 12 -23 8 -8 8 -15 -2 -26 -7 -9 -16
-13 -21 -10 -5 3 -9 0 -9 -7 0 -9 -3 -10 -10 -3 -7 7 -29 8 -56 4 -39 -6 -44
-5 -39 9 4 14 4 14 -7 1 -11 -13 -51 -15 -263 -14 -308 2 -365 4 -365 17 0 5
-7 4 -15 -3 -13 -11 -14 -10 -9 4 3 9 10 16 16 16 5 0 7 4 4 9 -7 11 21 8 31
-4 4 -4 3 -5 -3 -2 -6 3 -11 1 -11 -6 0 -7 13 -13 29 -12 28 0 28 0 7 16 -15
11 -18 18 -10 23 6 4 11 2 11 -3 0 -6 7 -11 15 -11 12 0 12 3 -2 18 -10 10
-20 16 -23 12 -9 -10 -59 -7 -63 4 -6 14 66 14 85 -1 30 -23 37 -24 33 -3 -2
11 -7 25 -11 32 -5 8 -2 9 10 5 10 -4 15 -3 11 4 -4 5 -15 7 -24 4 -11 -3 -18
0 -18 8 0 16 26 18 47 4 12 -9 13 -9 3 3 -14 15 -17 41 -5 39 19 -3 33 2 28
10 -4 5 103 9 254 10 144 0 258 -4 255 -8z m81 -10 c-4 -5 0 -11 6 -14 10 -3
8 -10 -6 -25 -31 -35 -47 -5 -17 32 14 17 26 22 17 7z m69 0 c3 -5 2 -12 -3
-15 -5 -3 -9 1 -9 9 0 17 3 19 12 6z m-795 -15 c0 -2 -7 -7 -16 -10 -8 -3 -12
-2 -9 4 6 10 25 14 25 6z m-23 -48 c-3 -8 -6 -5 -6 6 -1 11 2 17 5 13 3 -3 4
-12 1 -19z m840 -10 c4 -28 -6 -18 -12 12 -2 12 -1 20 2 16 4 -4 8 -16 10 -28z
m-733 -14 c4 -10 1 -14 -6 -12 -15 5 -23 28 -10 28 5 0 13 -7 16 -16z m730
-23 c-5 -6 -34 20 -34 30 0 5 8 1 18 -8 10 -10 17 -20 16 -22z m-840 -10 c4
-5 -3 -7 -14 -4 -23 6 -26 13 -6 13 8 0 17 -4 20 -9z m860 -37 c3 -8 2 -12 -4
-9 -6 3 -10 10 -10 16 0 14 7 11 14 -7z m-214 -96 c0 -4 14 -3 30 2 17 5 30 7
30 5 0 -2 3 -11 7 -21 5 -13 3 -15 -7 -9 -9 5 -11 4 -6 -4 10 -15 29 -3 22 14
-3 8 5 15 19 17 15 3 22 1 19 -7 -3 -6 2 -12 11 -12 8 0 15 3 15 7 0 4 7 7 15
7 8 0 12 -4 9 -8 -2 -4 4 -12 13 -18 10 -6 13 -11 6 -11 -6 0 -15 5 -18 10 -3
5 -12 10 -18 10 -7 -1 -2 -9 10 -19 12 -10 19 -21 16 -25 -3 -3 -12 2 -20 12
-13 16 -14 15 -8 -5 5 -17 2 -23 -9 -23 -9 0 -16 5 -16 11 0 5 5 7 11 3 8 -5
8 -1 0 13 -6 11 -7 24 -3 28 4 4 -7 0 -25 -9 -21 -11 -30 -21 -27 -31 4 -8 10
-15 15 -15 13 0 11 18 -3 23 -10 4 -10 6 -1 6 18 1 26 -18 14 -33 -6 -7 -8
-16 -4 -19 3 -4 2 -7 -4 -7 -6 0 -13 7 -17 15 -3 8 -11 15 -18 15 -9 0 -8 -3
2 -10 14 -9 7 -14 -13 -11 -5 1 -6 -3 -2 -8 3 -6 13 -8 23 -5 9 3 2 -8 -16
-26 -19 -17 -31 -34 -28 -37 3 -4 14 4 25 16 20 23 36 16 21 -9 -14 -23 -50
-22 -69 1 -14 18 -18 19 -18 6 0 -9 4 -14 9 -11 4 3 8 1 8 -5 0 -6 -97 -9
-274 -8 -229 1 -273 3 -269 15 3 7 9 10 12 5 8 -11 34 -16 27 -4 -4 5 -1 11 5
13 7 2 13 17 15 33 2 24 1 27 -7 12 -6 -9 -7 -22 -3 -29 5 -8 2 -9 -10 -5 -11
5 -15 3 -10 -4 4 -7 1 -10 -7 -7 -7 2 -14 20 -14 39 -1 22 -6 33 -14 31 -8 -2
-11 3 -8 12 4 11 1 13 -11 9 -15 -6 -15 -5 -3 11 14 17 16 16 34 -6 l18 -23
-12 25 c-7 14 -12 28 -11 33 4 15 -14 6 -26 -14 -18 -28 -26 -18 -11 13 9 21
18 25 62 27 28 1 52 3 53 4 6 6 464 1 464 -5z m-616 -10 c-3 -5 -9 -6 -14 -3
-5 3 -11 1 -15 -5 -3 -5 -2 -10 4 -10 5 0 17 -3 27 -7 10 -4 15 -2 11 3 -8 13
10 41 20 31 4 -5 3 -11 -2 -15 -18 -13 -16 -35 6 -58 12 -13 27 -20 33 -17 6
4 5 -1 -3 -10 -9 -11 -9 -17 -2 -17 6 0 9 -8 7 -17 -5 -31 -18 -53 -28 -53 -6
0 -4 8 3 17 12 15 12 16 -3 11 -20 -8 -56 16 -40 26 16 10 15 29 0 20 -10 -6
-10 -4 0 7 6 7 12 17 12 22 0 6 -5 5 -12 0 -20 -15 -50 -24 -43 -13 3 6 12 10
19 10 8 0 19 7 26 15 15 17 7 19 -21 5 -13 -7 -19 -7 -19 0 0 5 7 10 15 10 8
0 15 5 15 11 0 6 -9 9 -19 6 -11 -2 -18 0 -17 7 3 20 15 33 30 33 8 0 13 -4
10 -9z m811 2 c3 -5 1 -10 -4 -10 -6 0 -11 5 -11 10 0 6 2 10 4 10 3 0 8 -4
11 -10z m-75 -40 c0 -5 -2 -10 -4 -10 -3 0 -8 5 -11 10 -3 6 -1 10 4 10 6 0
11 -4 11 -10z m96 -46 c1 -9 -1 -13 -4 -9 -4 4 -7 12 -7 18 -1 7 -7 11 -14 9
-7 -1 -9 2 -6 9 9 13 28 -3 31 -27z m-93 -10 c-17 -13 -17 -14 0 -8 13 5 17 1
16 -17 0 -23 -1 -23 -9 -4 -5 11 -9 16 -10 10 -6 -31 -3 -41 15 -53 l20 -13
-20 7 c-11 4 -28 6 -37 6 -10 0 -18 4 -18 9 0 6 5 7 10 4 6 -3 10 -2 10 3 0 6
-8 13 -17 17 -17 6 -17 8 2 21 11 8 21 19 21 24 3 18 4 19 19 14 14 -6 13 -8
-2 -20z m57 -4 c0 -5 -7 -7 -15 -4 -8 4 -15 8 -15 10 0 2 7 4 15 4 8 0 15 -4
15 -10z m-810 -18 c0 -5 -7 -9 -15 -9 -8 0 -12 4 -9 9 3 4 9 8 15 8 5 0 9 -4
9 -8z m8 -47 c-3 -3 -9 2 -12 12 -6 14 -5 15 5 6 7 -7 10 -15 7 -18z m294 -88
c6 -9 8 -9 8 -1 0 17 356 13 370 -4 7 -9 7 -9 -2 -2 -17 14 -31 12 -21 -2 19
-31 10 -38 -22 -18 -46 28 -50 25 -13 -11 18 -17 27 -27 19 -23 -8 4 -26 8
-41 9 -20 2 -27 -2 -25 -14 1 -9 0 -10 -2 -3 -3 6 -9 12 -14 12 -6 0 -7 -6 -3
-12 4 -7 -2 -5 -13 5 -19 17 -33 14 -33 -6 0 -6 3 -7 7 -4 7 7 33 -11 33 -23
0 -4 -12 -15 -27 -24 l-28 -17 23 20 c12 10 22 23 22 27 0 4 -3 4 -7 1 -3 -4
-13 -1 -21 6 -13 10 -15 9 -9 -7 6 -15 5 -17 -6 -7 -11 9 -20 6 -41 -10 -15
-12 -30 -19 -33 -15 -4 3 -1 6 5 6 9 0 9 5 1 18 -13 21 -46 24 -54 4 -3 -9 1
-12 15 -7 11 4 20 2 20 -3 0 -6 -11 -9 -25 -7 -26 2 -48 15 -27 15 7 0 12 4
12 8 0 5 -7 9 -15 9 -8 0 -15 -4 -15 -9 0 -6 -6 -8 -12 -5 -7 2 -22 -3 -33
-12 -20 -16 -20 -16 -1 7 11 12 14 22 8 22 -6 0 -14 -5 -18 -11 -4 -8 -11 -4
-19 11 -7 14 -15 18 -19 12 -3 -6 -2 -13 4 -17 5 -3 10 -11 10 -18 0 -6 -7 -1
-16 12 -14 19 -14 25 -3 32 16 10 15 10 -24 13 -15 2 -30 -1 -33 -6 -3 -4 -13
-8 -22 -7 -14 0 -13 2 3 9 11 5 16 9 11 9 -5 1 -3 7 3 15 8 9 8 16 2 20 -5 4
-12 -3 -16 -14 -3 -11 -11 -20 -16 -20 -6 0 -7 5 -4 10 4 6 2 16 -3 23 -8 9 9
12 71 14 53 1 85 -3 89 -10z m-82 -61 c0 -2 -9 -6 -20 -9 -11 -3 -18 -1 -14 4
5 9 34 13 34 5z m485 -14 c-3 -3 -11 0 -18 7 -9 10 -8 11 6 5 10 -3 15 -9 12
-12z m-478 -32 c-2 -11 -6 -22 -10 -25 -4 -3 -5 -2 -2 2 3 3 -3 16 -12 27 -17
20 -17 20 1 6 18 -14 19 -13 13 3 -4 11 -3 16 3 12 5 -3 8 -15 7 -25z m103 -4
c0 -2 -7 -9 -15 -16 -13 -11 -14 -10 -9 4 5 14 24 23 24 12z m157 -9 c0 -7 -9
-13 -19 -13 -18 0 -18 1 -2 13 10 7 18 13 19 13 1 0 2 -6 2 -13z m-122 -6 c3
-5 0 -13 -6 -17 -8 -5 -9 -3 -4 6 6 10 4 12 -9 7 -10 -4 -15 -3 -11 3 8 13 22
13 30 1z"/>
<path d="M616 1022 c-3 -6 1 -15 9 -22 8 -7 12 -16 9 -21 -3 -5 0 -9 6 -9 7 0
10 6 7 14 -3 7 -1 19 4 25 5 6 6 9 3 6 -4 -3 -13 0 -20 6 -7 6 -14 6 -18 1z"/>
<path d="M621 944 c0 -11 3 -14 6 -6 3 7 2 16 -1 19 -3 4 -6 -2 -5 -13z"/>
<path d="M685 940 c-3 -6 1 -7 9 -4 18 7 21 14 7 14 -6 0 -13 -4 -16 -10z"/>
<path d="M786 992 c-3 -5 -3 -18 1 -28 5 -13 3 -15 -7 -9 -8 5 -11 4 -6 -3 4
-6 14 -8 23 -5 10 4 14 2 10 -4 -3 -5 0 -10 8 -10 8 0 15 5 15 11 0 6 5 4 11
-4 9 -13 10 -13 6 1 -3 9 -1 21 4 26 7 7 5 12 -5 16 -8 3 -18 2 -22 -4 -3 -6
-11 -3 -18 7 -8 11 -15 13 -20 6z m45 -35 c-7 -7 -14 -8 -21 -1 -6 6 -2 10 12
11 16 2 18 -1 9 -10z"/>
<path d="M473 993 c-7 -2 -13 -9 -13 -15 0 -7 5 -7 13 1 8 6 18 7 22 3 5 -4 5
-1 1 6 -4 6 -8 12 -9 11 -1 0 -8 -3 -14 -6z"/>
<path d="M427 953 c-4 -3 -7 -11 -7 -17 0 -6 5 -5 12 2 6 6 9 14 7 17 -3 3 -9
2 -12 -2z"/>
<path d="M835 840 c3 -5 8 -10 11 -10 2 0 4 5 4 10 0 6 -5 10 -11 10 -5 0 -7
-4 -4 -10z"/>
<path d="M877 829 c7 -7 15 -10 18 -7 3 3 -2 9 -12 12 -14 6 -15 5 -6 -5z"/>
<path d="M375 820 c-4 -6 1 -7 12 -3 16 6 17 5 3 -13 -14 -18 -14 -18 2 -5 10
7 15 17 12 22 -7 12 -21 11 -29 -1z"/>
<path d="M400 780 c-9 -6 -10 -10 -3 -10 6 0 15 5 18 10 8 12 4 12 -15 0z"/>
<path d="M890 779 c0 -5 4 -8 9 -4 5 3 12 1 16 -5 3 -5 11 -10 18 -10 6 0 2 7
-9 15 -23 17 -34 19 -34 4z"/>
<path d="M895 751 c-3 -5 -2 -12 3 -15 5 -3 9 1 9 9 0 17 -3 19 -12 6z"/>
<path d="M335 700 c-3 -5 -1 -10 4 -10 6 0 11 5 11 10 0 6 -2 10 -4 10 -3 0
-8 -4 -11 -10z"/>
<path d="M1006 693 c-6 -14 -5 -15 5 -6 7 7 10 15 7 18 -3 3 -9 -2 -12 -12z"/>
<path d="M959 828 c0 -2 -2 -11 -4 -21 -3 -15 -1 -16 11 -6 7 6 11 15 8 20 -5
9 -13 12 -15 7z"/>
<path d="M896 553 c-6 -14 -5 -15 5 -6 7 7 10 15 7 18 -3 3 -9 -2 -12 -12z"/>
<path d="M353 485 c0 -8 4 -12 9 -9 5 3 6 10 3 15 -9 13 -12 11 -12 -6z"/>
<path d="M890 485 c0 -5 5 -17 10 -25 5 -8 10 -10 10 -5 0 6 -5 17 -10 25 -5
8 -10 11 -10 5z"/>
<path d="M398 423 c7 -3 16 -2 19 1 4 3 -2 6 -13 5 -11 0 -14 -3 -6 -6z"/>
<path d="M447 419 c7 -7 15 -10 18 -7 3 3 -2 9 -12 12 -14 6 -15 5 -6 -5z"/>
<path d="M278 508 c10 -13 10 -17 0 -21 -10 -4 -10 -6 1 -6 11 -1 11 -5 -3
-20 -15 -16 -15 -19 -1 -24 8 -4 15 -1 15 5 0 7 4 7 14 -1 12 -10 14 -9 11 6
-2 10 -4 20 -5 23 -1 3 -2 8 -2 11 1 4 -9 15 -21 25 -16 14 -18 14 -9 2z m26
-46 c3 -5 -1 -9 -9 -9 -8 0 -12 4 -9 9 3 4 7 8 9 8 2 0 6 -4 9 -8z"/>
<path d="M962 461 c-11 -7 -11 -9 0 -14 9 -3 15 1 15 9 0 8 -1 14 -1 14 -1 0
-7 -4 -14 -9z"/>
<path d="M438 323 c10 -4 9 -8 -4 -17 -15 -12 -15 -13 0 -13 9 0 16 5 16 11 0
6 5 4 10 -4 9 -13 10 -13 10 0 0 8 10 0 23 -17 22 -33 37 -42 37 -23 0 6 -5
10 -12 10 -6 0 -8 3 -5 7 4 3 18 -4 31 -16 13 -12 26 -18 29 -14 11 18 86 8
101 -13 14 -18 15 -18 21 -2 4 10 11 15 16 13 5 -3 18 6 30 19 15 17 26 23 34
16 6 -5 17 -5 25 0 8 5 26 6 39 3 17 -4 22 -2 17 6 -4 6 -12 9 -17 6 -8 -6
-13 8 -10 28 0 4 -4 7 -10 7 -6 0 -9 -6 -6 -14 4 -10 0 -14 -14 -11 -10 2 -23
6 -28 10 -5 3 -16 -1 -24 -9 -15 -16 -27 -12 -23 7 2 7 1 9 -1 4 -3 -4 -9 -5
-14 -1 -5 3 -18 7 -28 9 -14 3 -18 -1 -14 -12 4 -9 8 -11 12 -4 10 15 44 -10
47 -35 2 -16 -1 -15 -16 6 -12 15 -20 19 -20 11 0 -8 -3 -11 -7 -8 -3 4 -13 1
-21 -6 -13 -10 -14 -8 -8 13 4 14 4 21 -1 15 -10 -12 -47 -20 -40 -8 3 5 -3
10 -14 10 -10 1 -19 -3 -19 -8 0 -6 -5 -7 -10 -4 -6 4 -7 11 -4 17 4 7 2 8 -5
4 -9 -6 -9 -11 0 -22 6 -8 9 -17 6 -20 -3 -3 -12 3 -19 15 -7 12 -16 21 -21
21 -4 0 -5 -4 -2 -10 3 -5 1 -10 -4 -10 -6 0 -11 6 -11 13 0 9 -2 9 -9 -1 -6
-10 -10 -8 -15 10 -4 17 -8 20 -15 9 -6 -9 -11 -10 -15 -2 -4 6 -13 11 -19 10
-8 0 -8 -2 1 -6z m352 -36 c0 -7 -4 -7 -12 1 -9 9 -16 8 -32 -6 -21 -17 -21
-17 -3 5 19 21 47 21 47 0z m-159 -1 c7 4 9 3 5 -4 -3 -5 0 -12 6 -15 7 -3 -3
-4 -22 -2 -19 1 -40 -2 -46 -6 -7 -6 -18 0 -30 14 l-19 22 22 -18 c21 -18 22
-18 34 2 10 14 17 17 26 10 7 -6 18 -7 24 -3z m82 -26 c8 -9 8 -11 0 -6 -6 3
-15 2 -18 -4 -5 -8 -11 -7 -21 1 -7 6 -12 15 -9 19 7 12 33 6 48 -10z"/>
<path d="M676 258 c3 -5 10 -6 15 -3 13 9 11 12 -6 12 -8 0 -12 -4 -9 -9z"/>
<path d="M508 323 c7 -3 16 -2 19 1 4 3 -2 6 -13 5 -11 0 -14 -3 -6 -6z"/>
<path d="M626 318 c3 -5 10 -6 15 -3 13 9 11 12 -6 12 -8 0 -12 -4 -9 -9z"/>
<path d="M870 322 c0 -12 19 -26 26 -19 2 2 -2 10 -11 17 -9 8 -15 8 -15 2z"/>
</g>
</svg>
